<svg width="1600" height="900" viewBox="0 0 1600 900" fill="none" xmlns="http://www.w3.org/2000/svg">
  <defs>
    <radialGradient id="bg" cx="50%" cy="48%" r="75%">
      <stop offset="0%" stop-color="#ecfeff" stop-opacity="0.20"/>
      <stop offset="38%" stop-color="#0f172a" stop-opacity="1"/>
      <stop offset="100%" stop-color="#020617" stop-opacity="1"/>
    </radialGradient>
    <linearGradient id="seal" x1="360" y1="230" x2="1240" y2="670">
      <stop offset="0" stop-color="#22d3ee"/>
      <stop offset="0.45" stop-color="#60a5fa"/>
      <stop offset="1" stop-color="#34d399"/>
    </linearGradient>
    <linearGradient id="gold" x1="0" y1="0" x2="1" y2="1">
      <stop offset="0" stop-color="#fef3c7"/>
      <stop offset="0.45" stop-color="#f59e0b"/>
      <stop offset="1" stop-color="#92400e"/>
    </linearGradient>
    <filter id="glow" x="-60%" y="-60%" width="220%" height="220%"><feGaussianBlur stdDeviation="9" result="b"/><feMerge><feMergeNode in="b"/><feMergeNode in="SourceGraphic"/></feMerge></filter>
    <filter id="soft" x="-40%" y="-40%" width="180%" height="180%"><feGaussianBlur stdDeviation="18"/></filter>
  </defs>

  <rect width="1600" height="900" fill="url(#bg)"/>
  <rect x="38" y="38" width="1524" height="824" rx="34" stroke="#164e63" stroke-width="2" opacity="0.85"/>
  <rect x="64" y="64" width="1472" height="772" rx="24" stroke="#334155" stroke-width="1.5" opacity="0.7"/>

  <g opacity="0.10" stroke="#94a3b8">
    <path d="M110 170H1490M110 290H1490M110 410H1490M110 530H1490M110 650H1490M110 770H1490"/>
    <path d="M210 110V790M370 110V790M530 110V790M690 110V790M850 110V790M1010 110V790M1170 110V790M1330 110V790"/>
  </g>

  <text x="800" y="105" text-anchor="middle" font-family="Inter, Arial, sans-serif" font-size="48" fill="#e0f2fe" font-weight="900" letter-spacing="1.5">ELYRIA CLINICAL AI BOUNDARY</text>
  <text x="800" y="144" text-anchor="middle" font-family="Inter, Arial, sans-serif" font-size="18" fill="#93c5fd" letter-spacing="1.2">Recommendation admissibility · physician signoff · stale evidence refusal · receipt replay</text>
  <text x="800" y="174" text-anchor="middle" font-family="Inter, Arial, sans-serif" font-size="14" fill="#64748b">Protected Public Proof Surface · Elyria Systems — VA · Samantha Revita + Terry Snyder</text>

  <ellipse cx="800" cy="455" rx="470" ry="235" fill="#0f172a" opacity="0.68" filter="url(#soft)"/>
  <rect x="520" y="246" width="560" height="390" rx="44" fill="#020617" stroke="url(#seal)" stroke-width="5" filter="url(#glow)"/>
  <rect x="590" y="315" width="420" height="245" rx="28" fill="#0f172a" stroke="#38bdf8" stroke-width="2" opacity="0.96"/>

  <g filter="url(#glow)">
    <path d="M800 336V536" stroke="#fef3c7" stroke-width="30" stroke-linecap="round"/>
    <path d="M700 436H900" stroke="#fef3c7" stroke-width="30" stroke-linecap="round"/>
    <path d="M800 336V536" stroke="#22d3ee" stroke-width="12" stroke-linecap="round"/>
    <path d="M700 436H900" stroke="#22d3ee" stroke-width="12" stroke-linecap="round"/>
  </g>

  <path d="M245 452H520" stroke="url(#seal)" stroke-width="14" stroke-linecap="round" filter="url(#glow)"/>
  <path d="M1080 452H1355" stroke="url(#seal)" stroke-width="14" stroke-linecap="round" filter="url(#glow)"/>
  <circle cx="245" cy="452" r="84" fill="#020617" stroke="#22d3ee" stroke-width="4"/>
  <circle cx="1355" cy="452" r="84" fill="#020617" stroke="#34d399" stroke-width="4"/>

  <text x="245" y="440" text-anchor="middle" font-family="Inter, Arial, sans-serif" font-size="20" fill="#e0f2fe" font-weight="900">AI OUTPUT</text>
  <text x="245" y="470" text-anchor="middle" font-family="Inter, Arial, sans-serif" font-size="13" fill="#7dd3fc">recommendation claim</text>
  <text x="1355" y="440" text-anchor="middle" font-family="Inter, Arial, sans-serif" font-size="20" fill="#dcfce7" font-weight="900">REVIEW</text>
  <text x="1355" y="470" text-anchor="middle" font-family="Inter, Arial, sans-serif" font-size="13" fill="#86efac">human boundary</text>

  <g font-family="Inter, Arial, sans-serif" font-size="15" font-weight="800">
    <g transform="translate(170 235)">
      <rect width="310" height="76" rx="18" fill="#020617" stroke="#22d3ee" stroke-width="2"/>
      <text x="155" y="32" text-anchor="middle" fill="#e0f2fe">EVIDENCE CURRENT</text>
      <text x="155" y="56" text-anchor="middle" fill="#7dd3fc" font-size="12">stale evidence refused</text>
    </g>
    <g transform="translate(1120 235)">
      <rect width="310" height="76" rx="18" fill="#020617" stroke="#34d399" stroke-width="2"/>
      <text x="155" y="32" text-anchor="middle" fill="#dcfce7">ROLE EXPLICIT</text>
      <text x="155" y="56" text-anchor="middle" fill="#86efac" font-size="12">clinical authority scoped</text>
    </g>
    <g transform="translate(170 595)">
      <rect width="310" height="76" rx="18" fill="#020617" stroke="#a78bfa" stroke-width="2"/>
      <text x="155" y="32" text-anchor="middle" fill="#ede9fe">SIGNOFF RESPECTED</text>
      <text x="155" y="56" text-anchor="middle" fill="#c4b5fd" font-size="12">recommendation ≠ authorization</text>
    </g>
    <g transform="translate(1120 595)">
      <rect width="310" height="76" rx="18" fill="#020617" stroke="#fbbf24" stroke-width="2"/>
      <text x="155" y="32" text-anchor="middle" fill="#fef3c7">RECEIPT / REPLAY</text>
      <text x="155" y="56" text-anchor="middle" fill="#fde68a" font-size="12">deterministic boundary result</text>
    </g>
  </g>

  <rect x="145" y="735" width="1310" height="64" rx="20" fill="#020617" stroke="#334155" stroke-width="2" opacity="0.94"/>
  <text x="800" y="775" text-anchor="middle" font-family="Georgia, serif" font-size="25" fill="#fef3c7">ClinicalAuthorization ≠ ModelRecommendation · Consequence requires boundary standing</text>
  <text x="800" y="838" text-anchor="middle" font-family="Inter, Arial, sans-serif" font-size="13" fill="#64748b">Public-safe boundary proof only. No diagnosis, treatment, prescribing, triage, PHI, patient data, or clinical decision support implementation.</text>
</svg>
